PathFileType	4	(X/Y/Z)	C:/Users/opensim2020/Desktop/walking_exp_matlab/subject01_walking10_straight_01.trc																																																																																																																															
DataRate	CameraRate	NumFrames	NumMarkers	Units	OrigDataRate	OrigDataStartFrame	OrigNumFrames																																																																																																																											
100	100	4	43	mm	100	1096	349																																																																																																																											
Frame#	Time	LFHD			RFHD			LBHD			RBHD			C7			T10			CLAV			STRN			RBAK			LSHO			LUPA			LELB			LFRM			LWRA			LWRB			LFIN			RSHO			RUPA			RELB			RFRM			RWRA			RWRB			RFIN			LASI			RASI			LPSI			RPSI			LTHI			LKNE			LTIB			LANK			LHEE			LTOE			RTHI			RKNE			RTIB			RANK			RHEE			RTOE			*39			*40			*41			*42		
		X1	Y1	Z1	X2	Y2	Z2	X3	Y3	Z3	X4	Y4	Z4	X5	Y5	Z5	X6	Y6	Z6	X7	Y7	Z7	X8	Y8	Z8	X9	Y9	Z9	X10	Y10	Z10	X11	Y11	Z11	X12	Y12	Z12	X13	Y13	Z13	X14	Y14	Z14	X15	Y15	Z15	X16	Y16	Z16	X17	Y17	Z17	X18	Y18	Z18	X19	Y19	Z19	X20	Y20	Z20	X21	Y21	Z21	X22	Y22	Z22	X23	Y23	Z23	X24	Y24	Z24	X25	Y25	Z25	X26	Y26	Z26	X27	Y27	Z27	X28	Y28	Z28	X29	Y29	Z29	X30	Y30	Z30	X31	Y31	Z31	X32	Y32	Z32	X33	Y33	Z33	X34	Y34	Z34	X35	Y35	Z35	X36	Y36	Z36	X37	Y37	Z37	X38	Y38	Z38	X39	Y39	Z39	X40	Y40	Z40	X41	Y41	Z41	X42	Y42	Z42	X43	Y43	Z43
																																																																																																																																		
175	1.74	-14.5671	1665.02258	1361.16492	15.57861	1673.03296	1470.58228	-130.61078	1628.06348	1388.29907	-101.46732	1635.64661	1504.66968	-166.89618	1428.28418	1425.04309	-193.68353	1132.9375	1429.56531	-22.6425	1363.44934	1428.37268	25.46282	1210.13586	1428.11755	-218.91948	1232.72119	1502.08691	-78.68682	1391.67725	1266.26685	-102.77491	1205.59937	1182.98193	-114.02325	1055.17444	1185.14893	-73.97092	947.7644	1164.54932	1.93876	832.88586	1189.40283	-51.05234	827.62866	1161.80261	-1.24121	758.30408	1156.01636	-88.9699	1391.05457	1578.32153	-137.78967	1189.8009	1680.78906	-128.32451	1064.66943	1685.65991	-84.31245	951.50702	1715.81531	11.71204	847.19934	1695.28564	-30.76062	842.75385	1735.75464	15.66742	769.9256	1732.53931	-6.09439	932.58514	1331.66565	-24.35753	927.83435	1547.50586	-196.64964	940.94611	1366.07788	-206.52568	942.44116	1511.53015	12.80651	605.38104	1277.09875	25.87767	472.92465	1299.61584	-2.15972	284.49191	1289.72778	-7.99951	68.07453	1348.28992	-53.65985	38.72386	1399.88684	139.87221	34.64915	1345.45496	-83.18043	591.92981	1604.11829	-88.13143	432.41968	1588.18372	-228.1521	321.87592	1586.72546	-364.40347	166.70058	1540.66992	-421.78632	169.29692	1487.401	-294.75543	41.17311	1531.15564	3.30064	1707.36584	1449.36768	1973.13245	1023.68665	-3101.97632	2012.44153	1022.04938	-3140.62915	NaN	NaN	NaN
176	1.75	-8.19303	1665.35852	1359.55542	21.8608	1673.34692	1469.05505	-124.19637	1628.25879	1386.58618	-95.22902	1635.78308	1502.94971	-160.37224	1428.50891	1422.85986	-187.52524	1133.27368	1427.1781	-16.199	1363.6814	1426.67639	31.89857	1210.37476	1426.50305	-212.74055	1233.02246	1499.67773	-71.73689	1392.00891	1264.41492	-94.94704	1206.01147	1180.76599	-106.03677	1055.32141	1182.85242	-65.04021	948.21399	1162.49207	11.69378	833.96722	1187.78345	-41.14999	828.31238	1159.98633	9.22881	759.48688	1154.36597	-82.82269	1391.32703	1576.42432	-132.25847	1190.25464	1678.8772	-123.48161	1065.07397	1683.73035	-80.27583	951.71381	1714.13452	15.35653	846.86548	1693.91821	-27.07939	842.74683	1734.22998	18.76126	769.55219	1731.09167	0.18571	932.51563	1329.94946	-18.53077	928.401	1545.68127	-190.43738	940.87036	1364.08081	-200.63414	941.90491	1509.552	17.18798	605.14557	1276.00513	29.47152	472.45712	1298.38818	-0.61125	284.25241	1289.39001	-7.38165	67.9771	1348.24866	-53.50544	38.85038	1399.95239	140.19324	34.54449	1345.63574	-70.31675	591.8797	1603.08667	-72.97865	432.57379	1587.51111	-214.39426	324.72888	1586.52063	-354.20447	173.05594	1540.01526	-411.55682	177.10516	1486.63965	-288.79944	44.98684	1531.20557	9.54945	1707.61572	1447.80176	1973.07593	1023.51837	-3101.83887	2012.46851	1021.98737	-3140.68896	NaN	NaN	NaN
177	1.76	-1.77123	1665.73108	1357.9873	28.10361	1673.58813	1467.57104	-117.72257	1628.41211	1384.84705	-88.96182	1635.85974	1501.29175	-153.87004	1428.85583	1420.83948	-181.42952	1133.66602	1424.84119	-9.8137	1363.88831	1425.01746	38.1245	1210.51807	1424.85242	-206.70149	1233.34924	1497.26282	-64.7389	1392.28064	1262.62769	-87.20779	1206.36047	1178.69043	-97.997	1055.5531	1180.52637	-56.17265	948.61713	1160.52783	21.38871	835.04688	1186.28662	-31.22245	828.91974	1158.14221	19.70773	760.56982	1152.84167	-76.74413	1391.5116	1574.62646	-126.84628	1190.5675	1676.94141	-118.61523	1065.37805	1681.85681	-76.11375	951.84821	1712.48181	19.07617	846.55444	1692.6311	-23.55708	842.53809	1732.69434	21.89611	769.12305	1729.66333	6.29762	932.41931	1328.33069	-12.8358	928.83984	1543.96667	-184.63525	940.76111	1362.26208	-194.68631	941.13568	1507.72168	21.81874	604.88654	1274.98328	32.96607	472.00363	1297.28479	0.72724	283.96326	1289.06641	-7.36744	68.01366	1348.57239	-53.4614	39.05606	1400.12781	140.35994	34.35538	1345.64539	-58.56882	592.138	1602.38171	-58.00687	432.96164	1586.98657	-200.60484	327.39722	1585.89526	-343.52298	179.4838	1539.14905	-400.79642	185.07713	1485.48718	-282.65262	48.89054	1531.42249	15.78231	1707.89795	1446.34839	1973.09229	1023.32379	-3101.8335	2012.55151	1022.15088	-3140.69189	NaN	NaN	NaN
178	1.77	4.53533	1666.02661	1356.55408	34.28322	1673.82007	1466.16736	-111.35586	1628.51367	1383.16809	-82.75603	1635.88562	1499.66785	-147.50832	1429.17029	1418.80481	-175.38757	1134.02356	1422.59326	-3.49787	1363.99194	1423.37891	43.65016	1210.30432	1422.8783	-200.65956	1233.62427	1494.82788	-57.87706	1392.57104	1260.90845	-79.44248	1206.75293	1176.69312	-89.99736	1055.74048	1178.23584	-47.22179	949.09448	1158.48206	31.11278	836.13922	1184.75549	-21.26005	829.62115	1156.32056	30.25308	761.5257	1151.50781	-70.79217	1391.6582	1572.83398	-121.49371	1190.83948	1675.03455	-113.77765	1065.68018	1680.04504	-72.033	951.91229	1710.75525	22.68133	846.18054	1691.26184	-20.17511	842.36615	1731.29907	25.05708	768.7251	1728.31946	12.20873	932.34003	1326.72253	-7.17904	929.22382	1542.33936	-178.73351	940.565	1360.66858	-188.9612	940.69	1506.18591	26.28857	604.59705	1273.97021	36.40134	471.47736	1296.31104	2.25915	283.73737	1288.68323	-7.24536	67.92857	1348.64478	-53.44846	39.0663	1400.16162	140.4899	34.21826	1345.66541	-47.26985	593.0683	1601.24402	-43.03199	433.79648	1586.49646	-186.74603	330.02164	1585.16895	-332.39697	185.42931	1538.06824	-389.46173	192.37206	1483.93286	-275.63	52.81436	1531.81702	21.97608	1708.12244	1444.96069	1973.15637	1023.40698	-3101.92432	2012.50586	1021.94849	-3140.70459	NaN	NaN	NaN
